<svg baseProfile="tiny" xmlns="http://www.w3.org/2000/svg" viewBox="0 0 400 400"><g><path d="M336.47 200.4c0 6.38 5.15 11.53 11.54 11.53 6.39 0 11.54-5.15 11.54-11.53 0-6.39-5.15-11.54-11.54-11.54-6.39 0-11.54 5.15-11.54 11.54z"/><path d="M64.96 211.93c6.39 0 11.54-5.15 11.54-11.53 0-6.39-5.15-11.54-11.54-11.54-6.38 0-11.54 5.15-11.54 11.54 0 6.38 5.15 11.53 11.54 11.53z"/><path d="M206.49 70.41c6.38 0 11.53-5.15 11.53-11.54 0-6.39-5.15-11.54-11.53-11.54-6.39 0-11.54 5.15-11.54 11.54 0 6.38 5.15 11.54 11.54 11.54z"/><path d="M206.49 330.38c-6.39 0-11.54 5.15-11.54 11.54 0 6.38 5.15 11.54 11.54 11.54 6.38 0 11.53-5.15 11.53-11.54 0-6.39-5.15-11.54-11.53-11.54z"/><path d="M395.38 17.13c0-3.5-1.36-6.79-3.83-9.26-5.11-5.11-13.42-5.11-18.52 0l-169.66 169.66-168.57-168.56c-2-2-5.25-2-7.25 0l-22.09 22.08c-.96.96-1.5 2.27-1.5 3.63 0 1.36.54 2.66 1.5 3.63l168.57 168.57-105.53 105.52-13.84-13.84c-2-2-5.25-2-7.25 0l-40.32 40.33c-1.27 1.27-1.78 3.12-1.35 4.86l9.39 37.89c.45 1.82 1.86 3.25 3.67 3.73l36.85 9.74c.43.11.87.17 1.31.17 1.34 0 2.65-.53 3.63-1.5l41.02-41.02c2-2 2-5.25 0-7.25l-14.57-14.57 105.51-105.54 154.4 154.4c.77 1.07 1.95 1.85 3.36 2.08l.11.02h.01l26.27 4.18h.02l6.81 1.08-.93-6.84-3.49-25.58-.02-.11c-.2-1.43-.97-2.63-2.04-3.42l-155.16-155.16 169.66-169.66c2.47-2.46 3.83-5.75 3.83-9.26zm-379.04 17.55l14.84-14.84 10.61 10.61-14.84 14.84-10.61-10.61zm17.86 17.86l14.84-14.84 3.23 3.23-14.84 14.84-3.23-3.23zm31 277.67l3.3-3.3 4.02 4.02-3.3 3.3c-.72.72-1.56.82-2.01.82-.44 0-1.29-.11-2.01-.82-1.09-1.1-1.09-2.93 0-4.02zm25.52 18.91l-35.31 35.31-31.06-8.21-7.96-32.13 34.65-34.65 10.21 10.21-3.3 3.3c-5.1 5.11-5.1 13.42 0 18.52 2.47 2.47 5.76 3.83 9.26 3.83 3.51 0 6.79-1.36 9.26-3.83l3.3-3.3 10.95 10.95zm-10.95-25.45l-4.02-4.02 105.52-105.52 4.02 4.02-105.52 105.52zm289.39 34.16l1.6 11.71-4.38 4.38-.07.11-12.62-2.01-309-309 3.86-3.86.84.85.08.08 304.47 304.47c1 1 2.31 1.5 3.63 1.5 1.31 0 2.62-.5 3.63-1.5 2-2 2-5.25 0-7.25l-305.41-305.4 3.72-3.72 309.65 309.64zm15.14-338.69l-169.66 169.66-4.02-4.02 169.66-169.65c.54-.54 1.28-.81 2.01-.81.73 0 1.46.27 2.01.81 1.09 1.08 1.09 2.92 0 4.01z"/></g></svg>